<svg aria-hidden="true" style="position: absolute; width: 0; height: 0; overflow: hidden;" version="1.1" xmlns="http://www.w3.org/2000/svg" xmlns:xlink="http://www.w3.org/1999/xlink">
<defs>
<symbol id="icon-burger" viewBox="0 0 32 32">
<path d="M28 10h-24c-0.552 0-1-0.448-1-1s0.448-1 1-1v0h24c0.552 0 1 0.448 1 1s-0.448 1-1 1v0z"></path>
<path d="M28 17h-24c-0.552 0-1-0.448-1-1s0.448-1 1-1v0h24c0.552 0 1 0.448 1 1s-0.448 1-1 1v0z"></path>
<path d="M28 24h-24c-0.552 0-1-0.448-1-1s0.448-1 1-1v0h24c0.552 0 1 0.448 1 1s-0.448 1-1 1v0z"></path>
</symbol>
<symbol id="icon-cross" viewBox="0 0 32 32">
<path d="M20.783 15.999l10.226-10.226c1.321-1.321 1.321-3.462 0-4.783s-3.462-1.321-4.783 0l-10.226 10.227-10.226-10.226c-1.321-1.321-3.462-1.321-4.783 0s-1.321 3.462 0 4.783l10.226 10.226-10.226 10.226c-1.321 1.321-1.321 3.462 0 4.783s3.462 1.321 4.783 0l10.226-10.225 10.226 10.225c1.321 1.321 3.462 1.321 4.783 0s1.321-3.462 0-4.783l-10.226-10.227z"></path>
</symbol>
<symbol id="icon-logo" viewBox="0 0 135 32">
<path fill="#e9eded" style="fill: var(--color1, #e9eded)" d="M90.14 17.609c-0.884-0.592-1.957-0.888-3.22-0.888s-2.399 0.305-3.409 0.915-1.804 1.497-2.381 2.663c-0.559 1.148-0.839 2.502-0.839 4.062s0.28 2.923 0.839 4.089c0.577 1.148 1.371 2.026 2.381 2.636s2.146 0.915 3.409 0.915c1.263 0 2.336-0.296 3.22-0.888 0.902-0.61 1.551-1.417 1.948-2.421v3.12h3.788v-20.735h-3.788v8.926c-0.397-1.004-1.046-1.802-1.948-2.394zM85.242 21.186c0.721-0.771 1.678-1.157 2.868-1.157 1.154 0 2.101 0.394 2.841 1.183 0.758 0.771 1.136 1.82 1.136 3.147 0 1.309-0.379 2.358-1.136 3.147-0.739 0.771-1.686 1.157-2.841 1.157-1.19 0-2.146-0.377-2.868-1.13-0.721-0.771-1.082-1.829-1.082-3.174s0.361-2.403 1.082-3.174z"></path>
<path fill="#e9eded" style="fill: var(--color1, #e9eded)" d="M38.276 19.761c0.559-0.95 1.299-1.695 2.219-2.233 0.92-0.556 1.948-0.834 3.084-0.834v4.062h-1.109c-2.796 0-4.194 1.291-4.194 3.873v7.182h-3.815v-14.902h3.815v2.851z"></path>
<path fill="#e9eded" style="fill: var(--color1, #e9eded)" d="M58.434 23.796c0 0.377-0.045 0.807-0.135 1.291h-10.985c0.054 1.327 0.415 2.304 1.082 2.932s1.497 0.941 2.489 0.941c0.884 0 1.614-0.215 2.191-0.646 0.595-0.43 0.974-1.013 1.136-1.748h4.031c-0.198 1.040-0.622 1.973-1.272 2.798s-1.488 1.47-2.516 1.937c-1.010 0.466-2.137 0.699-3.382 0.699-1.461 0-2.76-0.305-3.896-0.915-1.136-0.628-2.020-1.515-2.651-2.663s-0.947-2.502-0.947-4.062 0.316-2.914 0.947-4.062c0.631-1.166 1.515-2.053 2.651-2.663s2.435-0.915 3.896-0.915c1.479 0 2.769 0.305 3.869 0.915 1.118 0.61 1.975 1.453 2.57 2.529 0.613 1.058 0.92 2.269 0.92 3.631zM54.592 23.419c0.054-1.219-0.271-2.143-0.974-2.771-0.685-0.628-1.533-0.941-2.543-0.941-1.028 0-1.894 0.314-2.597 0.941s-1.091 1.551-1.163 2.771h7.278z"></path>
<path fill="#e9eded" style="fill: var(--color1, #e9eded)" d="M71.343 18.281c-1.281-1.040-2.886-1.56-4.816-1.56-1.461 0-2.76 0.305-3.896 0.915s-2.020 1.497-2.651 2.663c-0.631 1.148-0.947 2.502-0.947 4.062s0.316 2.914 0.947 4.062c0.631 1.148 1.515 2.035 2.651 2.663 1.136 0.61 2.435 0.915 3.896 0.915 1.93 0 3.535-0.52 4.816-1.56 1.299-1.040 2.11-2.457 2.435-4.25h-4.031c-0.162 0.789-0.532 1.417-1.109 1.883-0.577 0.448-1.308 0.672-2.192 0.672-1.010 0-1.858-0.368-2.543-1.103-0.667-0.753-1.001-1.847-1.001-3.282s0.334-2.52 1.001-3.255c0.685-0.753 1.533-1.13 2.543-1.13 0.884 0 1.614 0.233 2.192 0.699 0.577 0.448 0.947 1.067 1.109 1.856h4.031c-0.325-1.793-1.136-3.21-2.435-4.25z"></path>
<path fill="#e9eded" style="fill: var(--color1, #e9eded)" d="M78.95 16.91v14.902h-3.815v-14.902h3.815z"></path>
<path fill="#e9eded" style="fill: var(--color1, #e9eded)" d="M101.795 16.91v14.902h-3.815v-14.902h3.815z"></path>
<path fill="#e9eded" style="fill: var(--color1, #e9eded)" d="M114.202 16.91l-3.788 11.109-3.815-11.109h-4.085l5.546 14.902h4.654l5.547-14.902h-4.058z"></path>
<path fill="#e9eded" style="fill: var(--color1, #e9eded)" d="M122.843 16.91v14.902h-3.815v-14.902h3.815z"></path>
<path fill="#e9eded" style="fill: var(--color1, #e9eded)" d="M135.385 28.638h-7.359l7.088-8.742v-2.986h-11.093v3.147h6.737l-6.9 8.742v3.013h11.526v-3.174z"></path>
<path fill="#e9eded" style="fill: var(--color1, #e9eded)" d="M77.034 15.56c1.245 0 2.255-1.004 2.255-2.242s-1.009-2.242-2.255-2.242c-1.245 0-2.255 1.004-2.255 2.242s1.009 2.242 2.255 2.242z"></path>
<path fill="#e9eded" style="fill: var(--color1, #e9eded)" d="M102.129 13.319c0 1.238-1.009 2.242-2.255 2.242s-2.255-1.004-2.255-2.242 1.009-2.242 2.255-2.242c1.245 0 2.255 1.004 2.255 2.242z"></path>
<path fill="#e9eded" style="fill: var(--color1, #e9eded)" d="M120.933 15.56c1.245 0 2.255-1.004 2.255-2.242s-1.009-2.242-2.255-2.242c-1.245 0-2.255 1.004-2.255 2.242s1.009 2.242 2.255 2.242z"></path>
<path fill="#00a1ff" style="fill: var(--color2, #00a1ff)" d="M16 16h-16v16h16v-16z"></path>
<path fill="#e00e00" style="fill: var(--color3, #e00e00)" d="M32 8.615c0-4.758-3.857-8.615-8.615-8.615s-8.615 3.857-8.615 8.615c0 4.758 3.857 8.615 8.615 8.615s8.615-3.857 8.615-8.615z"></path>
</symbol>
</defs>
</svg>
